<svg xmlns="http://www.w3.org/2000/svg" width="91.569" height="92.062" viewBox="0 0 91.569 92.062">
  <path id="Path_306" data-name="Path 306" d="M1273.568,51.589q-.283-.371-.589-.774l-.02-.027-24.536-25.2a17.6,17.6,0,1,0-33.287-7.988,18.018,18.018,0,0,0,4.647,11.931c.415.458,30.455,33.22,31.844,34.918a9.428,9.428,0,0,1,2.114,6.221c0,3.7-2.06,6.6-4.814,8.885-2.607,2.157-6.469,3.288-11.48,3.37v.023h-33.256l20.938-21.728c5.142-4.439,10.944-.491,5.356,7.462L1220.46,79.165h10.493l5.551-5.674c2.62-3.221,4.043-5.3,4.5-9.543.832-7.693-4.409-13.677-11.949-13.15-5.789.4-8.249,3.913-12.617,8.443L1184.8,92.061h37.77l.008-.034c3.427.063,6.944.025,9.784-.009h2.956v-.03l.745,0a46.405,46.405,0,0,0,7.186-.531h.352V91.4a27.055,27.055,0,0,0,12.66-5.267c4.848-3.871,7.3-9.189,7.3-15.807a17.538,17.538,0,0,0-3.275-10.8c-2.08-2.755-32.676-35.237-32.676-35.237a8.038,8.038,0,0,1-3.325-6.683,8.438,8.438,0,0,1,.31-2.264v.027c.8-4.08,5.239-6.683,9.726-5.8s7.48,4.919,6.678,9a6.877,6.877,0,0,1-.463,1.464,6.078,6.078,0,0,1-1.971,2.337,3.938,3.938,0,0,0-1.6,3.074c0,.01,0,.02,0,.03a4.723,4.723,0,0,0,1.7,3.591L1275.851,60.9l.219-.932c.909-3.909-.375-5.589-2.5-8.374" transform="translate(-1184.797 0)" fill="#e1ccbf"/>
</svg>
