<svg xmlns="http://www.w3.org/2000/svg" width="18" height="18" viewBox="0 0 18 18">
  <path id="Icon_corebrands-instagram" data-name="Icon corebrands-instagram" d="M9,0C6.556,0,6.251.012,5.293.052A6.683,6.683,0,0,0,3.108.471a4.414,4.414,0,0,0-1.594,1.04A4.364,4.364,0,0,0,.474,3.105,6.683,6.683,0,0,0,.055,5.291C.011,6.249,0,6.553,0,9s.012,2.752.052,3.709a6.7,6.7,0,0,0,.419,2.186,4.414,4.414,0,0,0,1.04,1.594,4.364,4.364,0,0,0,1.594,1.04,6.773,6.773,0,0,0,2.186.419C6.251,17.991,6.556,18,9,18s2.752-.012,3.709-.052a6.789,6.789,0,0,0,2.186-.419,4.414,4.414,0,0,0,1.594-1.04,4.341,4.341,0,0,0,1.04-1.594,6.773,6.773,0,0,0,.419-2.186C17.993,11.751,18,11.447,18,9s-.012-2.752-.052-3.709a6.769,6.769,0,0,0-.419-2.186,4.415,4.415,0,0,0-1.04-1.594A4.341,4.341,0,0,0,14.9.471,6.7,6.7,0,0,0,12.711.052C11.753.009,11.449,0,9,0ZM9,1.62c2.4,0,2.69.012,3.639.052a4.981,4.981,0,0,1,1.67.311,2.807,2.807,0,0,1,1.037.673,2.774,2.774,0,0,1,.671,1.035,4.981,4.981,0,0,1,.311,1.67c.041.95.052,1.237.052,3.639s-.012,2.69-.056,3.639a5.121,5.121,0,0,1-.317,1.67,2.927,2.927,0,0,1-.675,1.037,2.84,2.84,0,0,1-1.037.671,4.984,4.984,0,0,1-1.676.311c-.955.041-1.236.052-3.645.052s-2.69-.012-3.645-.056a5.169,5.169,0,0,1-1.676-.317,2.824,2.824,0,0,1-1.035-.675A2.7,2.7,0,0,1,1.948,14.3a5.032,5.032,0,0,1-.317-1.676c-.032-.943-.047-1.236-.047-3.634S1.6,6.3,1.631,5.342a5.039,5.039,0,0,1,.317-1.676,2.643,2.643,0,0,1,.673-1.037,2.684,2.684,0,0,1,1.035-.675,5.016,5.016,0,0,1,1.667-.313c.955-.034,1.236-.047,3.642-.047ZM9,4.381A4.62,4.62,0,1,0,13.623,9,4.619,4.619,0,0,0,9,4.381ZM9,12a3,3,0,1,1,3-3,3,3,0,0,1-3,3ZM14.889,4.2a1.081,1.081,0,1,1-1.082-1.078A1.082,1.082,0,0,1,14.889,4.2Z" transform="translate(-0.002)" fill="#fff"/>
</svg>
