<svg xmlns="http://www.w3.org/2000/svg" width="79.599" height="80.027" viewBox="0 0 79.599 80.027">
  <path id="Path_310" data-name="Path 310" d="M1261.964,44.845q-.246-.322-.512-.673l-.017-.023-21.328-21.9a15.3,15.3,0,1,0-28.935-6.944,15.663,15.663,0,0,0,4.04,10.371c.36.4,26.474,28.878,27.682,30.354a8.2,8.2,0,0,1,1.838,5.408c0,3.214-1.791,5.74-4.185,7.723-2.266,1.875-5.623,2.858-9.979,2.93v.02h-28.909l18.2-18.888c4.47-3.859,9.514-.427,4.656,6.487l-8.716,9.109h9.121l4.826-4.932c2.278-2.8,3.514-4.607,3.913-8.3.723-6.687-3.833-11.889-10.387-11.431-5.032.351-7.171,3.4-10.968,7.34L1184.8,80.027h32.832l.007-.03c2.979.055,6.036.021,8.5-.008h2.569v-.026l.647,0a40.34,40.34,0,0,0,6.247-.461h.306v-.047a23.518,23.518,0,0,0,11.005-4.578,16.721,16.721,0,0,0,6.35-13.74,15.245,15.245,0,0,0-2.847-9.392c-1.808-2.395-28.4-30.631-28.4-30.631a6.988,6.988,0,0,1-2.891-5.809,7.332,7.332,0,0,1,.27-1.968v.024c.7-3.547,4.554-5.809,8.455-5.043s6.5,4.276,5.805,7.823a5.982,5.982,0,0,1-.4,1.273,5.284,5.284,0,0,1-1.713,2.032,3.423,3.423,0,0,0-1.389,2.672c0,.009,0,.017,0,.026a4.106,4.106,0,0,0,1.474,3.121l32.326,27.672.19-.81c.79-3.4-.326-4.859-2.175-7.28" transform="translate(-1184.797 0)" fill="#e1ccbf"/>
</svg>
